<svg width="808" height="184" viewBox="0 0 808 184" fill="none" xmlns="http://www.w3.org/2000/svg">
<path d="M257.778 74.892C257.494 71.767 256.23 69.3381 253.986 67.6051C251.77 65.8438 248.602 64.9631 244.483 64.9631C241.756 64.9631 239.483 65.3182 237.665 66.0284C235.847 66.7386 234.483 67.7188 233.574 68.9688C232.665 70.1903 232.196 71.5966 232.168 73.1875C232.111 74.4943 232.366 75.6449 232.935 76.6392C233.531 77.6335 234.384 78.5142 235.491 79.2812C236.628 80.0199 237.991 80.6733 239.582 81.2415C241.173 81.8097 242.963 82.3068 244.952 82.733L252.452 84.4375C256.77 85.375 260.577 86.625 263.872 88.1875C267.196 89.75 269.98 91.6108 272.224 93.7699C274.497 95.929 276.216 98.4148 277.381 101.227C278.545 104.04 279.142 107.193 279.17 110.688C279.142 116.199 277.75 120.929 274.994 124.878C272.239 128.827 268.276 131.852 263.105 133.955C257.963 136.057 251.756 137.108 244.483 137.108C237.182 137.108 230.818 136.014 225.392 133.827C219.966 131.639 215.747 128.315 212.736 123.855C209.724 119.395 208.176 113.756 208.091 106.938H228.29C228.46 109.75 229.213 112.094 230.548 113.969C231.884 115.844 233.716 117.264 236.045 118.23C238.403 119.196 241.131 119.679 244.227 119.679C247.068 119.679 249.483 119.295 251.472 118.528C253.489 117.761 255.037 116.696 256.116 115.332C257.196 113.969 257.75 112.406 257.778 110.645C257.75 108.997 257.239 107.591 256.244 106.426C255.25 105.233 253.716 104.21 251.642 103.358C249.597 102.477 246.983 101.668 243.801 100.929L234.682 98.7983C227.125 97.0653 221.173 94.267 216.827 90.4034C212.48 86.5114 210.321 81.2557 210.349 74.6364C210.321 69.2386 211.77 64.5085 214.696 60.446C217.622 56.3835 221.67 53.2159 226.841 50.9432C232.011 48.6705 237.906 47.5341 244.526 47.5341C251.287 47.5341 257.153 48.6847 262.125 50.9858C267.125 53.2585 271.003 56.4545 273.759 60.5739C276.514 64.6932 277.92 69.4659 277.977 74.892H257.778ZM286.969 65.858V48.7273H360.733V65.858H334.27V136H313.474V65.858H286.969ZM371.035 136V48.7273H431.887V65.858H392.129V83.7557H428.776V100.929H392.129V118.869H431.887V136H371.035ZM463.975 136H441.305L470.751 48.7273H498.833L528.279 136H505.609L485.112 70.7159H484.43L463.975 136ZM460.95 101.653H508.336V117.676H460.95V101.653ZM569.934 136H537.675V48.7273H569.891C578.783 48.7273 586.44 50.4744 592.86 53.9688C599.309 57.4347 604.281 62.4347 607.775 68.9688C611.269 75.4744 613.016 83.2585 613.016 92.321C613.016 101.412 611.269 109.224 607.775 115.759C604.309 122.293 599.352 127.307 592.903 130.801C586.454 134.267 578.798 136 569.934 136ZM558.769 118.017H569.124C574.011 118.017 578.144 117.193 581.525 115.545C584.934 113.869 587.505 111.156 589.238 107.406C590.999 103.628 591.88 98.5994 591.88 92.321C591.88 86.0426 590.999 81.0426 589.238 77.321C587.477 73.571 584.877 70.8722 581.44 69.2244C578.031 67.5483 573.826 66.7102 568.826 66.7102H558.769V118.017ZM625.332 136V48.7273H686.184V65.858H646.425V83.7557H683.073V100.929H646.425V118.869H686.184V136H625.332ZM699.394 136V48.7273H758.968V65.858H720.488V83.7557H755.175V100.929H720.488V136H699.394ZM790.683 48.7273V136H769.589V48.7273H790.683Z" fill="white"/>
<circle cx="93.5" cy="92.5" r="82.5" fill="url(#paint0_linear_357_1277)"/>
<path d="M59.6145 59.2985C63.0423 63.0056 66.7308 66.488 70.261 70.1108C73.4279 73.3779 77.312 74.8944 81.7643 74.8944C100.645 74.8944 119.544 74.8663 138.443 74.7821C143.342 74.754 145.028 73.0409 145.252 68.2572C145.364 66.048 145.429 63.8387 145.401 61.6201C145.317 55.4416 143.929 54.0281 137.8 54.0281C125.375 54 112.949 54.0094 100.524 54L61.673 54.0843H61.6451C59.3351 54.1311 57.9752 56.8833 59.2513 58.8304C59.363 58.9896 59.4934 59.1581 59.6238 59.2985H59.6145Z" fill="white"/>
<path d="M130.33 126.063C127.275 122.693 123.838 119.669 120.848 116.271C116.964 111.853 112.269 110.046 106.42 110.112C89.84 110.289 73.2696 110.289 56.6899 110.13C44.7673 110.018 43.3702 110.28 44.3109 124.322C44.6649 129.639 46.1086 130.959 51.362 130.987L89.4488 130.875C102.396 130.875 115.352 130.903 128.29 130.828H128.318C130.451 130.8 131.764 128.291 130.628 126.466C130.535 126.316 130.433 126.194 130.321 126.063H130.33Z" fill="white"/>
<path d="M90.7716 93.8885C92.7462 93.4298 93.7615 91.0801 92.5879 89.4325L92.3457 89.1423C88.4336 85.0327 84.5774 80.7546 80.209 77.1224C77.9735 75.2689 74.7414 73.8085 71.8911 73.6775C62.083 73.2375 52.2469 73.3873 42.4295 73.4528C37.8654 73.4809 36.2633 75.2127 36.0677 79.9121C35.9745 82.3648 35.9745 84.8549 36.0863 87.3075C36.3471 92.6435 37.6511 93.954 42.9138 94.0102L90.1848 93.9634C90.3804 93.9634 90.576 93.9447 90.7716 93.8979V93.8885Z" fill="white"/>
<path d="M150.151 96.9405C149.89 91.6045 148.586 90.294 143.324 90.2378L96.0528 90.2846C95.8572 90.2846 95.6616 90.3033 95.466 90.3501C93.4913 90.8088 92.4761 93.1585 93.6497 94.8061L93.8919 95.0963C97.8039 99.2059 101.66 103.484 106.029 107.116C108.264 108.97 111.496 110.43 114.346 110.561C124.155 111.001 133.991 110.851 143.808 110.786C148.372 110.758 149.974 109.026 150.17 104.327C150.263 101.874 150.263 99.3838 150.151 96.9311V96.9405Z" fill="white"/>
<mask id="mask0_357_1277" style="mask-type:alpha" maskUnits="userSpaceOnUse" x="34" y="29" width="165" height="167">
<path d="M159.382 29L198.151 108.624L108.151 195.624L34.0001 154.382L159.382 29Z" fill="#D9D9D9"/>
</mask>
<g mask="url(#mask0_357_1277)">
<circle cx="93.4923" cy="92.5" r="82.5" fill="url(#paint1_linear_357_1277)"/>
<path d="M59.6068 59.2985C63.0346 63.0056 66.7231 66.488 70.2533 70.1108C73.4202 73.3779 77.3043 74.8944 81.7567 74.8944C100.637 74.8944 119.536 74.8663 138.435 74.7821C143.335 74.754 145.021 73.0409 145.244 68.2572C145.356 66.048 145.421 63.8387 145.393 61.6201C145.309 55.4416 143.921 54.0281 137.793 54.0281C125.367 54 112.941 54.0094 100.516 54L61.6653 54.0843H61.6374C59.3274 54.1311 57.9675 56.8833 59.2436 58.8304C59.3553 58.9896 59.4858 59.1581 59.6162 59.2985H59.6068Z" fill="white"/>
<path d="M130.322 126.063C127.267 122.693 123.83 119.669 120.84 116.271C116.956 111.853 112.262 110.046 106.412 110.112C89.8324 110.289 73.2619 110.289 56.6822 110.13C44.7596 110.018 43.3625 110.28 44.3032 124.322C44.6572 129.639 46.1009 130.959 51.3543 130.987L89.4412 130.875C102.388 130.875 115.345 130.903 128.282 130.828H128.31C130.443 130.8 131.757 128.291 130.62 126.466C130.527 126.316 130.425 126.194 130.313 126.063H130.322Z" fill="white"/>
<path d="M90.7639 93.8885C92.7386 93.4298 93.7538 91.0801 92.5802 89.4325L92.338 89.1423C88.426 85.0327 84.5698 80.7546 80.2013 77.1224C77.9658 75.2689 74.7337 73.8085 71.8834 73.6775C62.0753 73.2375 52.2392 73.3873 42.4218 73.4528C37.8577 73.4809 36.2556 75.2127 36.06 79.9121C35.9669 82.3648 35.9669 84.8549 36.0786 87.3075C36.3394 92.6435 37.6435 93.954 42.9061 94.0102L90.1771 93.9634C90.3727 93.9634 90.5683 93.9447 90.7639 93.8979V93.8885Z" fill="white"/>
<path d="M150.144 96.9405C149.883 91.6045 148.579 90.294 143.316 90.2378L96.0451 90.2846C95.8495 90.2846 95.6539 90.3033 95.4583 90.3501C93.4836 90.8088 92.4684 93.1585 93.642 94.8061L93.8842 95.0963C97.7962 99.2059 101.652 103.484 106.021 107.116C108.256 108.97 111.489 110.43 114.339 110.561C124.147 111.001 133.983 110.851 143.8 110.786C148.365 110.758 149.967 109.026 150.162 104.327C150.255 101.874 150.255 99.3838 150.144 96.9311V96.9405Z" fill="white"/>
<circle cx="93.4923" cy="92.5" r="82.5" fill="url(#paint2_linear_357_1277)"/>
<path d="M59.6068 59.2985C63.0346 63.0056 66.7231 66.488 70.2533 70.1108C73.4202 73.3779 77.3043 74.8944 81.7567 74.8944C100.637 74.8944 119.536 74.8663 138.435 74.7821C143.335 74.754 145.021 73.0409 145.244 68.2572C145.356 66.048 145.421 63.8387 145.393 61.6201C145.309 55.4416 143.921 54.0281 137.793 54.0281C125.367 54 112.941 54.0094 100.516 54L61.6653 54.0843H61.6374C59.3274 54.1311 57.9675 56.8833 59.2436 58.8304C59.3553 58.9896 59.4858 59.1581 59.6162 59.2985H59.6068Z" fill="white"/>
<path d="M130.322 126.063C127.267 122.693 123.83 119.669 120.84 116.271C116.956 111.853 112.262 110.046 106.412 110.112C89.8324 110.289 73.2619 110.289 56.6822 110.13C44.7596 110.018 43.3625 110.28 44.3032 124.322C44.6572 129.639 46.1009 130.959 51.3543 130.987L89.4412 130.875C102.388 130.875 115.345 130.903 128.282 130.828H128.31C130.443 130.8 131.757 128.291 130.62 126.466C130.527 126.316 130.425 126.194 130.313 126.063H130.322Z" fill="white"/>
<path d="M90.7639 93.8885C92.7386 93.4298 93.7538 91.0801 92.5802 89.4325L92.338 89.1423C88.426 85.0327 84.5698 80.7546 80.2013 77.1224C77.9658 75.2689 74.7337 73.8085 71.8834 73.6775C62.0753 73.2375 52.2392 73.3873 42.4218 73.4528C37.8577 73.4809 36.2556 75.2127 36.06 79.9121C35.9669 82.3648 35.9669 84.8549 36.0786 87.3075C36.3394 92.6435 37.6435 93.954 42.9061 94.0102L90.1771 93.9634C90.3727 93.9634 90.5683 93.9447 90.7639 93.8979V93.8885Z" fill="white"/>
<path d="M150.144 96.9405C149.883 91.6045 148.579 90.294 143.316 90.2378L96.0451 90.2846C95.8495 90.2846 95.6539 90.3033 95.4583 90.3501C93.4836 90.8088 92.4684 93.1585 93.642 94.8061L93.8842 95.0963C97.7962 99.2059 101.652 103.484 106.021 107.116C108.256 108.97 111.489 110.43 114.339 110.561C124.147 111.001 133.983 110.851 143.8 110.786C148.365 110.758 149.967 109.026 150.162 104.327C150.255 101.874 150.255 99.3838 150.144 96.9311V96.9405Z" fill="white"/>
</g>
<defs>
<linearGradient id="paint0_linear_357_1277" x1="-70.8978" y1="55" x2="223.066" y2="51.3745" gradientUnits="userSpaceOnUse">
<stop stop-color="#0075FF"/>
<stop offset="1" stop-color="#02006D"/>
</linearGradient>
<linearGradient id="paint1_linear_357_1277" x1="-70.9055" y1="55" x2="223.058" y2="51.3745" gradientUnits="userSpaceOnUse">
<stop stop-color="#FF86DD"/>
<stop offset="1" stop-color="#FF3395"/>
</linearGradient>
<linearGradient id="paint2_linear_357_1277" x1="-70.9055" y1="55" x2="223.058" y2="51.3745" gradientUnits="userSpaceOnUse">
<stop stop-color="#FF86DD"/>
<stop offset="1" stop-color="#FF3395"/>
</linearGradient>
</defs>
</svg>
